<?xml version="1.0" standalone="no"?>
<!DOCTYPE svg PUBLIC "-//W3C//DTD SVG 20010904//EN"
 "http://www.w3.org/TR/2001/REC-SVG-20010904/DTD/svg10.dtd">
<svg version="1.0" xmlns="http://www.w3.org/2000/svg"
 width="836.000000pt" height="836.000000pt" viewBox="0 0 836.000000 836.000000"
 preserveAspectRatio="xMidYMid meet">
<metadata>
Created by potrace 1.14, written by Peter Selinger 2001-2017
</metadata>
<g transform="translate(0.000000,836.000000) scale(0.100000,-0.100000)"
fill="#000000" stroke="none">
<path d="M3945 8354 c-22 -2 -96 -9 -165 -15 -1230 -110 -2381 -798 -3075
-1839 -378 -567 -599 -1176 -682 -1878 -24 -205 -24 -679 0 -884 83 -702 304
-1311 682 -1878 581 -872 1470 -1493 2489 -1740 170 -42 395 -80 586 -102 175
-19 660 -16 845 6 699 82 1308 303 1875 681 965 644 1622 1665 1804 2805 42
264 50 372 50 670 0 298 -8 406 -50 670 -200 1253 -974 2358 -2089 2981 -481
269 -1014 438 -1585 505 -126 14 -594 27 -685 18z m695 -149 c778 -95 1479
-387 2080 -870 147 -117 396 -358 519 -500 538 -622 864 -1366 968 -2205 25
-205 25 -695 0 -900 -93 -752 -360 -1416 -805 -2004 -118 -156 -236 -288 -403
-451 -645 -629 -1445 -1008 -2369 -1122 -204 -25 -695 -25 -900 1 -753 92
-1415 358 -2005 805 -307 232 -628 565 -852 882 -394 559 -633 1186 -720 1889
-25 205 -25 695 0 900 93 748 358 1412 796 1993 236 313 572 638 892 864 609
430 1300 675 2074 737 118 9 596 -3 725 -19z"/>
<path d="M5500 7783 c-78 -13 -251 -77 -249 -92 0 -12 540 -416 567 -425 73
-24 160 -112 211 -213 80 -159 63 -410 -43 -639 -63 -134 -162 -272 -315 -436
l-72 -77 77 -73 c42 -40 79 -74 83 -76 15 -5 384 364 445 445 179 239 276 513
276 780 0 151 -18 235 -74 349 -134 270 -463 467 -775 463 -58 -1 -117 -4
-131 -6z"/>
<path d="M5092 7518 c-41 -88 -56 -158 -55 -268 0 -183 77 -346 186 -399 111
-54 312 8 421 130 l36 39 0 108 0 109 -269 171 c-148 95 -273 172 -279 172 -6
0 -24 -28 -40 -62z"/>
<path d="M3749 6647 c-42 -28 -62 -67 -53 -104 4 -15 38 -60 76 -99 l68 -71
-84 23 c-253 67 -426 46 -426 -52 0 -56 16 -74 103 -113 65 -30 91 -37 127
-34 25 2 326 26 668 53 343 27 626 50 628 53 6 6 -356 175 -486 227 -234 94
-404 140 -516 140 -57 0 -78 -4 -105 -23z"/>
<path d="M4165 6219 c-330 -27 -613 -47 -630 -45 -16 2 -58 14 -92 27 l-62 24
-133 -68 c-292 -149 -559 -388 -757 -676 l-62 -91 48 19 c26 10 82 32 123 49
314 125 730 230 1105 279 202 26 789 26 990 0 432 -57 790 -152 1223 -326 l53
-21 -60 87 c-246 357 -552 607 -928 759 -70 28 -98 34 -152 33 -36 -1 -336
-23 -666 -50z"/>
<path d="M3910 5703 c-19 -1 -87 -8 -150 -14 -374 -35 -840 -151 -1215 -302
l-110 -44 -3 -166 -2 -165 112 44 c916 363 1818 427 2726 193 173 -44 453
-136 605 -198 l97 -40 -2 166 -3 165 -95 40 c-391 163 -878 279 -1335 318
-109 9 -541 11 -625 3z"/>
<path d="M2064 5316 c-147 -68 -234 -216 -270 -457 -29 -195 1 -430 71 -569
38 -75 116 -154 188 -190 108 -54 97 -121 97 605 0 720 9 655 -86 611z"/>
<path d="M2200 4700 l0 -640 90 0 90 0 0 640 0 640 -90 0 -90 0 0 -640z"/>
<path d="M6020 4700 l0 -640 90 0 90 0 0 640 0 640 -90 0 -90 0 0 -640z"/>
<path d="M6250 4705 c0 -726 -11 -659 97 -605 72 36 150 115 188 190 15 29 38
96 52 149 22 83 26 117 26 256 1 327 -92 535 -277 621 -95 44 -86 109 -86
-611z"/>
<path d="M3922 5319 c-452 -29 -927 -139 -1394 -325 l-98 -38 0 -447 0 -447
41 -74 c254 -450 647 -747 1161 -879 83 -21 118 -21 48 0 -167 50 -340 173
-392 280 -27 55 -36 163 -19 224 11 39 9 49 -24 135 -174 450 -70 743 309 873
131 45 271 65 365 52 97 -15 179 -45 236 -89 l45 -34 45 34 c86 66 229 103
355 91 188 -17 380 -92 489 -191 72 -66 126 -165 142 -264 20 -122 -8 -295
-77 -472 -31 -82 -34 -97 -25 -129 16 -52 14 -149 -4 -199 -40 -114 -173 -223
-363 -297 -94 -36 -68 -35 68 4 484 137 852 426 1099 861 l41 74 0 447 0 448
-117 46 c-662 256 -1281 358 -1931 316z"/>
<path d="M3587 4023 c-12 -11 -8 -36 8 -53 15 -16 12 -18 -32 -29 -54 -14 -83
-36 -83 -62 0 -28 31 -39 107 -39 37 0 105 -5 151 -12 72 -10 85 -9 98 4 14
14 14 19 1 45 -20 38 -95 106 -146 132 -39 21 -91 28 -104 14z"/>
<path d="M4780 4008 c-55 -27 -160 -129 -160 -156 0 -36 24 -46 87 -33 31 6
94 11 139 11 90 0 128 10 138 35 9 25 -36 64 -83 71 -46 7 -48 10 -24 36 13
15 15 23 7 36 -16 25 -53 25 -104 0z"/>
<path d="M2666 3295 c-177 -186 -248 -275 -315 -394 -109 -194 -171 -387 -193
-607 -22 -222 15 -413 109 -558 91 -141 269 -286 467 -380 80 -39 234 -96 256
-96 5 0 4 15 -1 32 -5 18 -9 49 -9 69 0 20 -6 41 -12 46 -7 5 -56 24 -108 42
-310 107 -460 247 -546 511 -24 75 -27 100 -28 215 0 149 27 278 90 439 92
234 182 366 403 589 100 101 171 181 165 185 -38 32 -103 82 -107 82 -3 0 -80
-79 -171 -175z"/>
<path d="M4155 3449 c-8 -12 43 -89 60 -89 23 0 82 80 68 94 -11 10 -121 7
-128 -5z"/>
<path d="M3119 3153 c-167 -280 -266 -543 -300 -800 -18 -136 -6 -383 25 -513
30 -127 93 -310 106 -310 3 0 11 33 17 73 24 148 84 261 167 312 40 24 62 30
123 34 67 3 80 0 138 -28 44 -22 82 -52 122 -95 207 -226 270 -561 158 -840
-8 -17 1 -18 221 -14 184 3 236 7 266 21 35 15 41 15 75 0 31 -14 83 -18 267
-21 220 -4 229 -3 221 14 -71 177 -73 371 -6 570 49 147 179 312 286 365 58
28 71 31 138 28 61 -4 83 -10 123 -34 83 -51 143 -164 167 -312 6 -40 14 -73
17 -73 6 0 20 33 56 135 93 259 110 579 46 845 l-19 75 0 -51 c-1 -76 -22
-107 -119 -169 -46 -30 -91 -55 -98 -55 -8 0 -19 -20 -25 -46 -7 -26 -25 -59
-41 -75 -71 -72 -177 -12 -219 125 -34 110 -24 199 30 257 34 36 92 40 132 8
l26 -20 81 52 c105 67 147 70 197 16 18 -20 33 -33 33 -28 0 18 -63 188 -105
284 -34 78 -135 262 -183 335 -7 9 -38 -2 -133 -47 -282 -136 -561 -196 -914
-195 -356 1 -652 67 -935 209 -49 25 -91 45 -92 45 -2 0 -24 -35 -49 -77z
m-74 -497 c19 -8 61 -33 95 -56 l60 -41 27 20 c39 32 97 28 133 -7 109 -109
21 -412 -119 -412 -50 0 -94 41 -110 102 -10 37 -17 46 -59 66 -68 33 -140 88
-163 125 -29 46 -23 136 12 173 41 45 71 52 124 30z m898 -19 c35 -16 86 -53
126 -92 l68 -65 77 0 78 0 64 64 c37 37 89 77 122 93 50 25 68 28 152 28 86 0
101 -3 162 -32 115 -54 183 -144 210 -277 29 -148 -55 -316 -196 -389 l-61
-32 -530 0 -530 0 -57 28 c-73 36 -139 101 -174 174 -36 74 -45 194 -19 274
53 167 191 262 370 256 62 -2 93 -8 138 -30z"/>
<path d="M2974 2618 c-41 -20 -57 -98 -30 -147 7 -12 46 -45 87 -71 l74 -48
12 54 c7 30 19 67 28 84 8 16 15 33 15 39 0 11 -139 101 -154 100 -6 0 -21 -5
-32 -11z"/>
<path d="M3233 2528 c-42 -44 -65 -108 -67 -188 -3 -164 109 -189 178 -40 29
64 30 187 0 227 -31 42 -71 42 -111 1z"/>
<path d="M4565 2601 c-56 -14 -100 -43 -172 -113 l-72 -69 -117 2 -117 1 -112
-216 -112 -216 413 0 c389 0 416 1 467 20 117 44 188 141 195 270 7 135 -55
242 -175 297 -58 27 -147 38 -198 24z"/>
<path d="M3746 2459 c-14 -11 -26 -29 -26 -40 0 -27 35 -59 65 -59 28 0 65 32
65 55 0 20 -44 65 -63 65 -8 0 -26 -9 -41 -21z"/>
<path d="M3611 2324 c-12 -15 -21 -30 -21 -34 0 -19 44 -60 64 -60 25 0 66 38
66 61 0 24 -39 59 -65 59 -14 0 -32 -11 -44 -26z"/>
<path d="M3870 2330 c-11 -11 -20 -29 -20 -40 0 -28 35 -60 65 -60 30 0 65 32
65 60 0 28 -35 60 -65 60 -14 0 -34 -9 -45 -20z"/>
<path d="M3754 2212 c-6 -4 -16 -17 -23 -30 -24 -46 39 -99 88 -73 49 27 29
111 -27 111 -15 0 -32 -4 -38 -8z"/>
<path d="M3738 3083 c7 -3 16 -2 19 1 4 3 -2 6 -13 5 -11 0 -14 -3 -6 -6z"/>
<path d="M4648 3083 c7 -3 16 -2 19 1 4 3 -2 6 -13 5 -11 0 -14 -3 -6 -6z"/>
<path d="M5328 2581 c-74 -48 -72 -44 -53 -80 8 -17 21 -58 28 -91 l12 -60 77
49 c87 56 98 71 98 135 0 92 -64 111 -162 47z"/>
<path d="M5088 2543 c-41 -48 -47 -121 -18 -215 36 -116 114 -162 164 -95 30
40 29 163 0 227 -41 87 -109 126 -146 83z"/>
<path d="M3181 1889 c-57 -29 -103 -95 -137 -194 -24 -70 -27 -96 -28 -210 0
-99 4 -144 18 -190 77 -253 303 -441 459 -381 151 58 227 326 162 571 -75 280
-315 485 -474 404z"/>
<path d="M5073 1896 c-138 -44 -275 -216 -329 -416 -12 -44 -18 -103 -18 -180
-1 -179 45 -296 143 -365 94 -66 234 -26 351 102 64 70 119 166 146 258 14 45
18 91 18 190 -1 113 -4 140 -27 210 -34 99 -81 165 -139 194 -50 24 -84 25
-145 7z"/>
</g>
</svg>
